<?xml version="1.0" standalone="no"?>
<!DOCTYPE svg PUBLIC "-//W3C//DTD SVG 1.1//EN" "http://www.w3.org/Graphics/SVG/1.1/DTD/svg11.dtd" >
<svg xmlns="http://www.w3.org/2000/svg">
<metadata>Generated by IcoMoon</metadata>
<defs>
<font id="icomoon" horiz-adv-x="1024">
<font-face units-per-em="1024" ascent="960" descent="-64" />
<missing-glyph horiz-adv-x="1024" />
<glyph unicode="&#x20;" horiz-adv-x="512" d="" />
<glyph unicode="&#xe900;" glyph-name="info" d="M486.4 140.8c-182.536 3.109-329.691 150.264-332.796 332.506l-0.004 0.294c3.109 182.536 150.264 329.691 332.506 332.796l0.294 0.004c182.536-3.109 329.691-150.264 332.796-332.506l0.004-0.294c-3.653-182.312-150.488-329.147-332.455-332.795l-0.345-0.005zM486.4 857.6c-212.077 0-384-171.923-384-384s171.923-384 384-384c212.077 0 384 171.923 384 384v0c0 212.077-171.923 384-384 384v0zM512 550.4v-208.896h51.2v-47.104h-150.016v47.104h47.616v157.696h-51.2v51.2zM460.8 652.8h51.2v-51.2h-51.2z" />
<glyph unicode="&#xe901;" glyph-name="tag" d="M958.464 396.8l-497.664 497.664c-8.66 8.379-20.292 13.733-33.166 14.332l-0.114 0.004h-325.12c-28.277 0-51.2-22.923-51.2-51.2v0-325.12c0.603-12.988 5.957-24.62 14.35-33.294l497.65-497.65c9.139-8.608 21.488-13.899 35.072-13.899s25.933 5.29 35.098 13.923l-0.026-0.024 326.656 326.656c7.73 8.917 12.44 20.635 12.44 33.453 0 13.624-5.321 26.005-13.999 35.178l0.022-0.024zM256 601.6c-56.554 0-102.4 45.846-102.4 102.4s45.846 102.4 102.4 102.4c56.554 0 102.4-45.846 102.4-102.4v0c0-56.554-45.846-102.4-102.4-102.4v0z" />
<glyph unicode="&#xe902;" glyph-name="notice" d="M512 960c-282.77 0-512-229.23-512-512s229.23-512 512-512c282.77 0 512 229.23 512 512v0c0 282.77-229.23 512-512 512v0zM563.2 140.8h-102.4v102.4h102.4zM563.2 345.6h-102.4v409.6h102.4z" />
<glyph unicode="&#xe903;" glyph-name="add" d="M819.2 499.2h-256v256h-102.4v-256h-256v-102.4h256v-256h102.4v256h256v102.4z" />
<glyph unicode="&#xe904;" glyph-name="check" d="M358.4 234.496l-213.504 213.504-72.192-72.192 285.696-286.208 614.4 614.4-72.192 72.704-542.208-542.208z" />
<glyph unicode="&#xe905;" glyph-name="advanced" d="M512 832c-212.077 0-384-171.923-384-384s171.923-384 384-384c212.077 0 384 171.923 384 384v0c0 212.077-171.923 384-384 384v0zM512 268.8c-98.969 0-179.2 80.231-179.2 179.2s80.231 179.2 179.2 179.2c98.969 0 179.2-80.231 179.2-179.2v0c0-98.969-80.231-179.2-179.2-179.2v0zM614.4 791.552l-25.6 168.448h-153.6l-25.6-168.448c30.651 9.48 65.888 14.94 102.4 14.94s71.749-5.46 104.939-15.608l-2.539 0.668zM409.6 104.448l25.6-168.448h153.6l25.6 168.448c-30.651-9.48-65.888-14.94-102.4-14.94s-71.749 5.46-104.939 15.608l2.539-0.668zM827.392 618.496l102.4 137.216-110.592 108.544-137.216-102.4c61.681-33.786 111.11-83.215 143.96-143.037l0.936-1.859zM196.608 277.504l-100.864-136.704 109.056-109.056 137.216 102.4c-61.681 33.786-111.11 83.215-143.96 143.037l-0.936 1.859zM855.552 345.6l168.448 25.6v153.6l-168.448 25.6c9.48-30.651 14.94-65.888 14.94-102.4s-5.46-71.749-15.608-104.939l0.668 2.539zM168.448 550.4l-168.448-25.6v-153.6l168.448-25.6c-9.48 30.651-14.94 65.888-14.94 102.4s5.46 71.749 15.608 104.939l-0.668-2.539zM682.496 132.608l137.216-102.4 108.544 110.592-102.4 137.216c-33.786-61.681-83.215-111.11-143.037-143.96l-1.859-0.936zM341.504 763.392l-136.704 100.864-109.056-109.056 102.4-137.216c33.325 61.715 82.235 111.282 141.548 144.477l1.812 0.931z" />
<glyph unicode="&#xe906;" glyph-name="close" d="M222.208 809.984l651.776-651.776-72.192-72.192-651.776 651.264zM873.984 737.792l-651.776-651.776-72.192 72.192 651.776 651.776z" />
<glyph unicode="&#xe907;" glyph-name="clock" d="M512 960c-282.77 0-512-229.23-512-512s229.23-512 512-512c282.77 0 512 229.23 512 512v0c0 282.77-229.23 512-512 512v0zM640 217.6l-179.2 179.2v358.4h102.4v-307.2l153.6-153.6z" />
<glyph unicode="&#xe908;" glyph-name="ellipsis" d="M614.4 448c0-56.554-45.846-102.4-102.4-102.4s-102.4 45.846-102.4 102.4c0 56.554 45.846 102.4 102.4 102.4s102.4-45.846 102.4-102.4zM256 448c0-56.554-45.846-102.4-102.4-102.4s-102.4 45.846-102.4 102.4c0 56.554 45.846 102.4 102.4 102.4s102.4-45.846 102.4-102.4zM972.8 448c0-56.554-45.846-102.4-102.4-102.4s-102.4 45.846-102.4 102.4c0 56.554 45.846 102.4 102.4 102.4s102.4-45.846 102.4-102.4z" />
<glyph unicode="&#xe909;" glyph-name="help" d="M515.072 908.8c150.528 0 252.928-96.768 252.928-231.936 0.041-1.633 0.064-3.556 0.064-5.484 0-86.45-46.679-161.997-116.207-202.812l-1.105-0.6c-72.704-47.104-93.184-78.336-93.184-138.752v-34.816h-128.512v41.472c-0.881 6.992-1.385 15.083-1.385 23.292 0 74.594 41.542 139.486 102.752 172.802l1.032 0.514c68.608 46.080 91.648 78.336 91.648 138.752 0.012 0.611 0.020 1.331 0.020 2.053 0 59.029-47.568 106.947-106.462 107.515h-8.758c-1.242 0.047-2.7 0.074-4.165 0.074-63.622 0-115.461-50.454-117.686-113.534l-0.006-0.203v-8.704h-130.048c-0.117 2.811-0.184 6.111-0.184 9.426 0 129.648 102.31 235.4 230.597 240.925l0.499 0.017c4.207 0.247 9.127 0.387 14.080 0.387s9.873-0.141 14.756-0.418l-0.676 0.031zM409.6 89.6c-0.111 1.739-0.175 3.77-0.175 5.816 0 51.343 39.987 93.348 90.517 96.569l0.282 0.014h11.776c2.067 0.159 4.476 0.249 6.906 0.249 50.443 0 91.775-39.010 95.475-88.507l0.019-0.319c0.244-2.074 0.384-4.477 0.384-6.912s-0.139-4.838-0.411-7.2l0.027 0.288c0.159-2.067 0.249-4.476 0.249-6.906 0-50.443-39.010-91.775-88.507-95.475l-0.319-0.019c-2.074-0.244-4.477-0.384-6.912-0.384s-4.838 0.139-7.2 0.411l0.288-0.027c-1.902-0.134-4.122-0.21-6.36-0.21-50.893 0-92.561 39.497-96.023 89.51l-0.017 0.301c-0.256 1.922-0.402 4.144-0.402 6.4s0.146 4.478 0.429 6.657l-0.027-0.257z" />
<glyph unicode="&#xe90a;" glyph-name="newWindow" d="M870.4 89.6h-716.8v716.8h256v102.4h-256c-56.554 0-102.4-45.846-102.4-102.4v0-716.8c0-56.554 45.846-102.4 102.4-102.4v0h716.8c56.554 0 102.4 45.846 102.4 102.4v0 256h-102.4zM972.8 908.8h-409.6l168.448-168.448-293.376-293.376 72.704-72.704 293.376 293.376 168.448-168.448v409.6z" />
<glyph unicode="&#xe90b;" glyph-name="search" d="M972.8 89.6l-263.68 263.68c36.973 55.476 58.999 123.666 58.999 197.001 0 197.939-160.461 358.4-358.4 358.4s-358.4-160.461-358.4-358.4c0-197.939 160.461-358.4 358.4-358.4 73.335 0 141.525 22.026 198.317 59.822l-1.316-0.824 263.68-263.68zM179.2 550.4c0 127.246 103.154 230.4 230.4 230.4s230.4-103.154 230.4-230.4c0-127.246-103.154-230.4-230.4-230.4v0c-127.246 0-230.4 103.154-230.4 230.4v0z" />
<glyph unicode="&#xe90c;" glyph-name="star" d="M1024 601.6h-358.4l-153.6 332.8-153.6-332.8h-358.4l279.552-280.064-83.968-358.4 316.416 189.44 316.416-190.976-83.456 358.4zM512 248.32l-192.512-116.224 51.2 219.136-191.488 173.568h236.032l96.768 199.68 97.28-199.68h235.52l-190.976-174.080 51.2-219.136z" />
<glyph unicode="&#xe90d;" glyph-name="userAvatar" d="M512 320c-303.104 0-460.8-179.2-460.8-281.6v-51.2h921.6v51.2c0 102.4-157.696 281.6-460.8 281.6zM768 652.8c0-141.385-114.615-256-256-256s-256 114.615-256 256c0 141.385 114.615 256 256 256s256-114.615 256-256z" />
<glyph unicode="&#xe90e;" glyph-name="logo-wikimediaCommons" d="M670.208 643.584c-55.647 23.312-97.065 70.964-111.349 129.269l-0.267 1.291c4.608-4.608 93.184-46.592 93.184-46.592l-139.776 232.448-139.776-232.96 93.184 46.592c3.107-36.196 13.168-69.413 28.843-99.216l-0.683 1.424c24.301-43.28 59.119-78.099 101.083-101.718l1.317-0.682c39.097-16.809 72.816-37.057 103.363-61.148l-0.963 0.732-32.768-32.256-23.040 23.040-13.312-78.848 78.848 13.312-23.040 23.040 31.744 33.28c42.419-46.974 69.815-108.24 74.195-175.778l0.045-0.862h-46.592v37.376l-64.512-46.592 64.512-46.592v37.376h46.592c-2.030-68.986-29.948-131.082-74.324-177.24l0.084 0.088-32.768 32.768 23.040 23.040-78.336 13.824 13.312-78.848 23.040 23.040 32.768-32.768c-46.974-42.419-108.24-69.815-175.778-74.195l-0.862-0.045v46.592h37.376l-46.592 65.024-46.592-65.024h37.376v-46.592c-68.799 2.165-130.692 30.058-176.727 74.323l0.087-0.083 32.256 32.768 23.040-23.040 13.824 78.848-78.848-13.312 23.040-23.040-32.256-33.28c-42.419 46.974-69.815 108.24-74.195 175.778l-0.045 0.862h46.592v-37.376l64.512 46.592-64.512 46.592v-37.376h-46.592c2.030 68.986 29.948 131.082 74.324 177.24l-0.084-0.088 32.768-32.768-23.040-23.040 78.848-13.312-14.336 78.336-23.040-23.040-32.768 32.768-69.632 65.024c-72.858-68.29-118.252-165.126-118.252-272.564 0-206.139 167.109-373.248 373.248-373.248s373.248 167.109 373.248 373.248c0 148.307-86.497 276.412-211.796 336.618l-2.24 0.97zM640 309.76c0-70.692-57.308-128-128-128s-128 57.308-128 128c0 70.692 57.308 128 128 128s128-57.308 128-128z" />
<glyph unicode="&#xe90f;" glyph-name="logo-wikipedia" d="M570.368 755.2h146.432c2.622-4.816 4.164-10.548 4.164-16.64s-1.542-11.824-4.257-16.826l0.092 0.186c-51.2-8.192-69.632-46.592-92.672-93.696l-71.68-140.8 120.32-266.752h3.584l180.224 414.72c22.528 54.784 20.48 81.408-40.448 87.040-2.665 4.807-4.234 10.54-4.234 16.64s1.569 11.833 4.325 16.819l-0.091-0.179h176.64c2.665-4.807 4.234-10.54 4.234-16.64s-1.569-11.833-4.325-16.819l0.091 0.179c-61.952-8.192-72.704-46.592-92.672-93.696l-223.744-516.096c-6.656-15.36-12.288-23.040-22.528-23.040s-16.896 8.192-21.504 23.040l-126.976 293.376-139.264-293.376c-5.632-15.36-12.288-23.040-22.528-23.040s-15.872 8.192-21.504 23.040l-204.8 516.608c-29.184 71.68-30.72 87.040-84.48 92.16-3.081 5.091-4.905 11.241-4.905 17.818 0 5.835 1.435 11.335 3.972 16.165l-0.091-0.191h200.192c2.665-4.807 4.234-10.54 4.234-16.64s-1.569-11.833-4.325-16.819l0.091 0.179c-59.392-6.656-61.952-23.040-37.888-80.896l174.592-419.328h2.56l104.96 226.304-77.824 181.76c-31.232 71.68-39.936 86.016-78.848 91.648-2.622 4.816-4.164 10.548-4.164 16.64s1.542 11.824 4.257 16.826l-0.092-0.186h169.984c2.665-4.807 4.234-10.54 4.234-16.64s-1.569-11.833-4.325-16.819l0.091 0.179c-37.888-6.144-35.84-23.040-9.728-80.896l44.544-102.4 4.096-4.608 51.2 102.4c29.184 58.368 32.768 80.896-7.68 87.040-2.961 5.057-4.709 11.136-4.709 17.623 0 5.305 1.169 10.337 3.264 14.852l-0.091-0.218z" />
<glyph unicode="&#xe910;" glyph-name="calendar" d="M921.6 806.4h-153.6v102.4h-102.4v-102.4h-307.2v102.4h-102.4v-102.4h-153.6c-56.554 0-102.4-45.846-102.4-102.4v0-614.4c0-56.554 45.846-102.4 102.4-102.4v0h819.2c56.554 0 102.4 45.846 102.4 102.4v0 614.4c0 56.554-45.846 102.4-102.4 102.4v0zM921.6 89.6h-819.2v460.8h819.2zM819.2 396.8h-204.8v-204.8h204.8z" />
<glyph unicode="&#xe911;" glyph-name="newspaper" d="M921.6 857.6h-665.6c-56.554 0-102.4-45.846-102.4-102.4v0-614.4c-28.277 0-51.2 22.923-51.2 51.2v0 512h-25.6c-42.415 0-76.8-34.385-76.8-76.8v0-512c0-42.415 34.385-76.8 76.8-76.8v0h844.8c56.554 0 102.4 45.846 102.4 102.4v0 614.4c0 56.554-45.846 102.4-102.4 102.4v0zM614.4 192h-307.2v51.2h307.2zM614.4 294.4h-307.2v51.2h307.2zM614.4 396.8h-307.2v51.2h307.2zM870.4 192h-204.8v256h204.8zM870.4 550.4h-563.2v204.8h563.2z" />
<glyph unicode="&#xe912;" glyph-name="page-existing" d="M512 448h-213.333v298.667h213.333zM725.333 320v-42.667h-426.667v42.667zM298.667 362.667v42.667h426.667v-42.667zM725.333 192h-426.667v42.667h426.667zM554.667 661.333h170.667v-42.667h-170.667zM554.667 533.333v42.667h170.667v-42.667zM725.333 490.667v-42.667h-170.667v42.667zM554.667 746.667h170.667v-42.667h-170.667zM810.667 832h-597.333v-768h439.808c89.173 0 157.525 69.419 157.525 160z" />
<glyph unicode="&#xe913;" glyph-name="graph" d="M102.4 806.4v-716.8h819.2v102.4h-716.8v614.4zM256 243.2v153.6l204.8 153.6 153.6-102.4 256 204.8v-409.6h-614.4z" />
<glyph unicode="&#xe914;" glyph-name="image" d="M921.6 857.6h-819.2c-56.554 0-102.4-45.846-102.4-102.4v0-614.4c0-56.554 45.846-102.4 102.4-102.4v0h819.2c56.554 0 102.4 45.846 102.4 102.4v0 614.4c0 56.554-45.846 102.4-102.4 102.4v0zM93.696 192l209.408 268.8 149.504-179.712 208.896 269.312 268.8-358.4z" />
</font>
</defs>
</svg>
